<svg height="2.91667in" viewBox="0 0 294.59999 210" width="4.09167in" xmlns="http://www.w3.org/2000/svg" xmlns:xlink="http://www.w3.org/1999/xlink"><linearGradient id="a" gradientTransform="matrix(1 0 0 -1 0 229)" gradientUnits="userSpaceOnUse" x1="94.45" x2="94.45" y1="182.8396" y2="101.10471"><stop offset="0" stop-color="#0096d7"/><stop offset=".9" stop-color="#004693"/></linearGradient><linearGradient id="b" gradientTransform="matrix(1 0 0 -1 0 229)" gradientUnits="userSpaceOnUse" x1="172.55" x2="172.55" y1="201.6992" y2="111.9525"><stop offset="0" stop-color="#dc3027"/><stop offset="1" stop-color="#910028"/></linearGradient><linearGradient id="c" gradientTransform="matrix(1 0 0 -1 0 229)" gradientUnits="userSpaceOnUse" x1="252.75" x2="252.75" y1="109.4088" y2="228.5995"><stop offset="0" stop-color="#9e9e9e"/><stop offset="1" stop-color="#d0d0d0"/></linearGradient><path d="m56.4 127.7 30.6-81.9h45.5l-30.7 81.9z" fill="url(#a)"/><path d="m155.3 27.6-10.9 28.9 22.7 60.7 33.6-89.6z" fill="url(#b)"/><path d="m136.4 56.2-22.7 60.7 4 10.7h45.5z" fill="#004693"/><path d="m240.6 0-21.2 56.5 22.8 60.7 43.9-117.2z" fill="url(#c)"/><path d="m192.8 127.6h45.5l-33.6-89.6-22.8 60.7z" fill="#910028"/><path d="m1.8 204.1a4.92333 4.92333 0 0 0 .6 2.9 3.3668 3.3668 0 0 0 2.6 1.2 3.40805 3.40805 0 0 0 2.5-1.1c.7-.8.6-2 .6-3v-7.7h1.4v8.1a4.72 4.72 0 0 1 -1.1 3.6 4.69075 4.69075 0 0 1 -3.5 1.5 5.32957 5.32957 0 0 1 -3.4-1.3 4.72017 4.72017 0 0 1 -1.3-3.7v-8.1h1.4v7.6z"/><path d="m15.3 208.6a1 1 0 0 1 -2 0 .92336.92336 0 0 1 1-.9.87062.87062 0 0 1 1 .9z"/><path d="m25 198.9a2.29871 2.29871 0 0 0 -2.2-1.4 2.02748 2.02748 0 0 0 -2.1 2c0 1.1 1.2 1.6 2 2l.9.4c1.7.7 3.1 1.6 3.1 3.6a3.97237 3.97237 0 0 1 -4.1 4 3.90716 3.90716 0 0 1 -4-3.3l1.4-.4a2.69062 2.69062 0 0 0 2.6 2.4 2.65183 2.65183 0 0 0 2.7-2.5c0-1.5-1.2-2-2.4-2.6l-.8-.3c-1.5-.7-2.8-1.5-2.8-3.3a3.39938 3.39938 0 0 1 3.6-3.3 3.79167 3.79167 0 0 1 3.4 2z"/><path d="m31.9 208.6a1 1 0 0 1 -2 0 .92336.92336 0 0 1 1-.9.87062.87062 0 0 1 1 .9z"/><path d="m41.9 196.4h2.4a7.00959 7.00959 0 0 1 5 1.6 6.5464 6.5464 0 0 1 .1 9.7c-1.5 1.4-3.1 1.6-5.1 1.6h-2.4zm2.5 11.6a5.492 5.492 0 0 0 4.1-1.3 5.06609 5.06609 0 0 0 1.6-3.8 5.22028 5.22028 0 0 0 -1.7-3.9 5.76392 5.76392 0 0 0 -4-1.2h-1v10.3h1z"/><path d="m54.4 196.4h6.7v1.3h-5.3v3.8h5.1v1.3h-5.1v5.1h5.3v1.3h-6.7z"/><path d="m65.8 209.3h-1.4v-12.9h2.1a5.05837 5.05837 0 0 1 3.2.7 3.514 3.514 0 0 1 1.5 2.9 3.63132 3.63132 0 0 1 -1.2 2.8 4.90755 4.90755 0 0 1 -3.1.9h-1.1zm0-7h1c1.6 0 2.9-.5 2.9-2.3 0-2.1-1.7-2.3-3.4-2.3h-.5z"/><path d="m75.8 205.7-1.6 3.7h-1.6l6-13.6 5.8 13.6h-1.6l-1.5-3.7zm2.8-6.6-2.2 5.2h4.4z"/><path d="m88.1 209.3h-1.4v-12.9h1.9c2.5 0 4.7.7 4.7 3.6a3.44638 3.44638 0 0 1 -3.2 3.6l4.1 5.8h-1.8l-3.9-5.7h-.4zm0-6.9h.4c1.6 0 3.3-.3 3.3-2.3 0-2.1-1.6-2.3-3.3-2.3h-.4z"/><path d="m100.3 209.3h-1.4v-11.6h-3.1v-1.3h7.7v1.3h-3.2z"/><path d="m107.4 195.7 4.7 10.9 4.7-10.9 2.6 13.7h-1.5l-1.7-8.7-4.2 9.3-4.1-9.3-1.7 8.7h-1.5z"/><path d="m122 196.4h6.7v1.3h-5.3v3.8h5.1v1.3h-5.1v5.1h5.3v1.3h-6.7z"/><path d="m132.1 195.8 10.1 10.6v-10h1.4v13.5l-10.1-10.5v10h-1.4z"/><path d="m150.6 209.3h-1.5v-11.6h-3.1v-1.3h7.7v1.3h-3.2v11.6z"/><path d="m175 202.9a6.75019 6.75019 0 1 1 -6.7-6.7 6.76536 6.76536 0 0 1 6.7 6.7zm-12 0a5.42218 5.42218 0 0 0 5.3 5.4 5.35685 5.35685 0 0 0 5.3-5.4 5.27081 5.27081 0 0 0 -5.3-5.3 5.15017 5.15017 0 0 0 -5.3 5.3z"/><path d="m179.3 197.7v3.8h4.3v1.3h-4.3v6.4h-1.4v-12.9h5.9v1.3h-4.5z"/><path d="m202.9 199.2a5.22027 5.22027 0 0 0 -3.9-1.7 5.35216 5.35216 0 0 0 0 10.7 5.61265 5.61265 0 0 0 3.9-1.7v1.8a6.75768 6.75768 0 0 1 -3.9 1.3 6.65019 6.65019 0 1 1 0-13.3 6.313 6.313 0 0 1 3.9 1.3z"/><path d="m219 202.9a6.7 6.7 0 1 1 -6.7-6.7 6.76535 6.76535 0 0 1 6.7 6.7zm-12 0a5.42218 5.42218 0 0 0 5.3 5.4 5.35685 5.35685 0 0 0 5.3-5.4 5.27081 5.27081 0 0 0 -5.3-5.3 5.15017 5.15017 0 0 0 -5.3 5.3z"/><path d="m223.5 195.7 4.7 10.9 4.7-10.9 2.6 13.7h-1.5l-1.7-8.7-4.2 9.3-4.1-9.3-1.7 8.7h-1.5z"/><path d="m239.7 195.7 4.7 10.9 4.7-10.9 2.6 13.7h-1.4l-1.7-8.7-4.2 9.3-4.2-9.3-1.7 8.7h-1.5z"/><path d="m254.3 196.4h6.7v1.3h-5.3v3.8h5.1v1.3h-5.1v5.1h5.3v1.3h-6.7z"/><path d="m265.7 209.3h-1.4v-12.9h1.9c2.5 0 4.7.7 4.7 3.6a3.37863 3.37863 0 0 1 -3.2 3.6l4.1 5.8h-1.8l-3.9-5.7h-.4zm0-6.9h.4c1.6 0 3.3-.3 3.3-2.3 0-2.1-1.6-2.3-3.3-2.3h-.4z"/><path d="m284.3 199.2a5.38285 5.38285 0 0 0 -3.9-1.7 5.35216 5.35216 0 0 0 0 10.7 5.61263 5.61263 0 0 0 3.9-1.7v1.8a6.65019 6.65019 0 1 1 -3.9-12 6.11582 6.11582 0 0 1 3.9 1.3z"/><path d="m287.6 196.4h6.7v1.3h-5.3v3.8h5.1v1.3h-5.1v5.1h5.3v1.3h-6.7z"/><path d="m39.1 149.9-4.8 13.3h-1.4l-4.6-13.3-1.9 13h-4.1l3.5-21.5h2.9l5.2 13.8 4.9-13.8h2.9l3.1 21.5h-4.1z"/><path d="m50.8 163.2h-4.2v-21.7h4.2z"/><path d="m53.8 141.5h2.9l10.9 14.5h.1v-14.5h4v21.7h-2.9l-10.9-14.5h-.1v14.1h-4z"/><path d="m84.1 163.2c-6.3 0-10.2-4.8-10.2-10.9s4-10.8 10.2-10.8 10.2 4.7 10.2 10.8-3.9 10.9-10.2 10.9zm0-17.8c-3.8 0-6 3.4-6 6.7 0 3.2 1.6 7.1 6 7.1 4.5 0 6-3.9 6-7.1 0-3.3-2.2-6.7-6-6.7z"/><path d="m110.8 163.2h-5.1l-5.3-8.8h-.1v8.8h-4.2v-21.7h5.7c4.3 0 7.3 1.9 7.3 6.5 0 2.8-1.5 5.5-4.4 6zm-10.5-11.7h.5c2.3 0 4-.7 4-3.3 0-2.7-1.7-3.2-3.9-3.2h-.6z"/><path d="m116 163.2h-4.2v-21.7h4.2z"/><path d="m125.8 163.2h-4.2v-18h-4.4v-3.7h13v3.7h-4.4z"/><path d="m129.1 141.5h4.9l3.8 7.6 4.1-7.6h5l-6.9 11.8v10h-4.2v-10z"/><path d="m155.4 141.5h5.3c4 0 6.5 1.6 6.5 5.9a5.08392 5.08392 0 0 1 -1.9 4.2c2.6.5 3.7 3.1 3.7 5.4 0 4.3-3 6.2-6.9 6.2h-6.6v-21.7zm4.2 9h.5c2 0 3.1-.6 3.1-2.8s-1.3-2.8-3.1-2.8h-.5zm0 9.3h.9c2.3 0 4.2-.3 4.2-3.1s-2.3-2.9-4.4-2.9h-.7z"/><path d="m170.8 141.5h4.1v11.9c0 2.6.2 6.3 3.7 6.3s3.7-3.7 3.7-6.3v-11.9h4.1v12.7c0 5.2-2.2 9.1-7.9 9.1s-7.8-3.9-7.8-9.1v-12.7z"/><path d="m199 146.5a3.93871 3.93871 0 0 0 -3.1-1.7 2.43811 2.43811 0 0 0 -2.5 2.3c0 3.5 8.2 2 8.2 8.9 0 4.1-2.6 7-6.8 7a7.20582 7.20582 0 0 1 -6.3-4l2.6-2.5a4.15865 4.15865 0 0 0 3.7 3 2.82591 2.82591 0 0 0 2.7-3c0-2.1-2-2.7-3.6-3.4-2.7-1.1-4.6-2.4-4.6-5.6a6.0001 6.0001 0 0 1 6-6.2 8.307 8.307 0 0 1 5.6 2.3z"/><path d="m208 163.2h-4.2v-21.7h4.2z"/><path d="m210.9 141.5h2.9l10.9 14.5h.1v-14.5h4v21.7h-2.9l-10.9-14.5h-.1v14.1h-4z"/><path d="m235.9 145.2v4.8h6.8v3.7h-6.8v5.9h7v3.7h-11.2v-21.8h11.2v3.7z"/><path d="m255.2 146.5a3.79377 3.79377 0 0 0 -3.1-1.7 2.43812 2.43812 0 0 0 -2.5 2.3c0 3.5 8.2 2 8.2 8.9 0 4.1-2.6 7-6.8 7-2.9 0-4.9-1.6-6.3-4l2.6-2.5a4.15865 4.15865 0 0 0 3.7 3 2.74927 2.74927 0 0 0 2.6-3c0-2.1-2-2.7-3.6-3.4-2.7-1.1-4.6-2.4-4.6-5.6a6.0001 6.0001 0 0 1 6-6.2 8.30708 8.30708 0 0 1 5.6 2.3z"/><path d="m269.8 146.5a3.79379 3.79379 0 0 0 -3.1-1.7 2.43813 2.43813 0 0 0 -2.5 2.3c0 3.5 8.2 2 8.2 8.9 0 4.1-2.6 7-6.8 7a7.20579 7.20579 0 0 1 -6.3-4l2.6-2.5a4.15865 4.15865 0 0 0 3.7 3 2.82592 2.82592 0 0 0 2.7-3c0-2.1-2-2.7-3.6-3.4-2.7-1.1-4.6-2.4-4.6-5.6a6.0001 6.0001 0 0 1 6-6.2 8.30706 8.30706 0 0 1 5.6 2.3z"/><path d="m0 167.6h6c6.3 0 10.5 4.7 10.5 10.9 0 6.1-4.3 10.8-10.5 10.8h-6zm4.3 18h.7c5.2 0 7.2-2.9 7.2-7.2 0-4.7-2.4-7.2-7.2-7.2h-.7z"/><path d="m22.3 171.3v4.8h6.7v3.7h-6.7v5.9h7v3.7h-11.3v-21.7h11.3v3.7h-7z"/><path d="m39.3 181.8 4.8-14.2h4.4l-8.2 21.7h-2.4l-8.1-21.7h4.4z"/><path d="m53.5 171.3v4.8h6.8v3.7h-6.7v5.9h7v3.7h-11.3v-21.7h11.2v3.7h-7z"/><path d="m67 185.6h6v3.7h-10.2v-21.7h4.2z"/><path d="m83.5 189.3c-6.3 0-10.2-4.8-10.2-10.9s4-10.8 10.2-10.8c6.1 0 10.2 4.7 10.2 10.8s-3.9 10.9-10.2 10.9zm0-17.7c-3.8 0-6 3.4-6 6.7 0 3.2 1.6 7.1 6 7.1 4.5 0 6-3.9 6-7.1 0-3.4-2.2-6.7-6-6.7z"/><path d="m99.8 189.3h-4.2v-21.7h5.7c4.6 0 7.5 1.8 7.5 6.7 0 4.6-2.5 6.9-7 6.9h-2.1v8.1zm0-11.6h.9c2.5 0 3.9-.5 3.9-3.4 0-2.8-1.6-3.2-4-3.2h-.7v6.6z"/><path d="m126 176.1-4.8 13.2h-1.4l-4.6-13.2-1.9 13h-4.1l3.5-21.4h2.9l5.2 13.8 4.9-13.8h2.9l3.1 21.4h-4.1z"/><path d="m137.6 171.3v4.8h6.7v3.7h-6.7v5.9h7v3.7h-11.2v-21.7h11.2v3.7h-7z"/><path d="m147.2 167.6h2.9l10.9 14.5h.1v-14.5h4v21.7h-2.9l-10.9-14.5h-.1v14.1h-4z"/><path d="m175 189.3h-4.2v-18h-4.4v-3.7h13v3.7h-4.4z"/><path d="m192.9 184.9-1.7 4.4h-4.4l8.3-21.7h3.2l8 21.7h-4.4l-1.6-4.4zm3.5-11.1-2.4 7.7h5z"/><path d="m225.7 177.8v.5c0 5.8-3 11-9.4 11-6 0-9.8-5.1-9.8-10.8 0-5.9 3.9-11 10.1-11a8.7919 8.7919 0 0 1 8.1 4.9l-3.6 1.9a5.20713 5.20713 0 0 0 -4.7-3.3c-3.9 0-5.8 4-5.8 7.4s1.9 7.2 5.8 7.2a4.89981 4.89981 0 0 0 4.7-4.7h-4.4v-3.3h9z"/><path d="m231.9 171.3v4.8h6.7v3.7h-6.7v5.9h7v3.7h-11.2v-21.7h11.2v3.7h-7z"/><path d="m241.4 167.6h2.9l10.9 14.5v-14.5h4.1v21.7h-2.9l-10.9-14.5h-.1v14.1h-4z"/><path d="m276.3 173.6a5.78222 5.78222 0 0 0 -4.5-2.2c-3.9 0-6.1 3.5-6.1 7.1 0 3.5 2.3 6.9 6 6.9a6.322 6.322 0 0 0 4.6-2.2v4.8a10.91445 10.91445 0 0 1 -4.7 1.2c-5.8 0-10.1-5-10.1-10.7 0-5.8 4.1-11 10.2-11a9.29055 9.29055 0 0 1 4.6 1.2z"/><path d="m276.8 167.6h4.9l3.8 7.6 4.2-7.6h4.9l-6.9 11.8v10h-4.2v-10z"/></svg>